<svg xmlns="http://www.w3.org/2000/svg" viewBox="0 0 3955.13 560.4"><defs><style>.cls-1{fill:#0065cc;}.cls-2{fill:#00a6ea;}.cls-3{fill:#002aa9;}.cls-4{fill:#164194;}</style></defs><g id="Layer_2" data-name="Layer 2"><g id="Layer_4" data-name="Layer 4"><path class="cls-1" d="M327.87,560.4a47.67,47.67,0,0,1-47.67-47.67V407.31H407.31V512.73a47.66,47.66,0,0,1-47.66,47.67Z"/><path class="cls-2" d="M512.73,280.2H407.31L280.2,407.31H512.73a47.66,47.66,0,0,0,47.66-47.66V327.87A47.66,47.66,0,0,0,512.73,280.2Z"/><path class="cls-1" d="M560.4,232.53a47.67,47.67,0,0,1-47.67,47.67H407.31V153.09H512.73a47.67,47.67,0,0,1,47.67,47.67Z"/><path class="cls-2" d="M280.2,47.67V153.09L407.31,280.2V47.67A47.66,47.66,0,0,0,359.64,0H327.87A47.66,47.66,0,0,0,280.2,47.67Z"/><path class="cls-1" d="M232.53,0A47.67,47.67,0,0,1,280.2,47.67V153.09H153.09V47.67A47.66,47.66,0,0,1,200.75,0Z"/><path class="cls-2" d="M47.67,280.2H153.09L280.2,153.09H47.67A47.67,47.67,0,0,0,0,200.76v31.77A47.67,47.67,0,0,0,47.67,280.2Z"/><path class="cls-1" d="M0,327.87A47.67,47.67,0,0,1,47.67,280.2H153.09V407.31H47.67A47.66,47.66,0,0,1,0,359.65Z"/><path class="cls-2" d="M280.2,512.73V407.31L153.09,280.2V512.73a47.66,47.66,0,0,0,47.66,47.67h31.78A47.67,47.67,0,0,0,280.2,512.73Z"/><path class="cls-3" d="M415.4,153.09s-1.51,89.19,29.3,127.12H407.31V153.09Z"/><path class="cls-3" d="M407.31,415.4s-89.19-1.51-127.11,29.3V407.31H407.31Z"/><path class="cls-3" d="M145,407.31s1.51-89.19-29.29-127.11h37.38V407.31Z"/><path class="cls-3" d="M153.08,145s89.19,1.51,127.11-29.3v37.38H153.08Z"/><path class="cls-2" d="M280.2,153.09A127.1,127.1,0,0,1,153.09,280.2V153.09Z"/><path class="cls-2" d="M407.31,280.2A127.11,127.11,0,0,1,280.2,153.09H407.31Z"/><path class="cls-2" d="M280.19,407.31A127.11,127.11,0,0,1,407.31,280.2V407.31Z"/><path class="cls-2" d="M153.08,280.19A127.11,127.11,0,0,1,280.19,407.3H153.08Z"/><path class="cls-2" d="M312.14,280.21a31.95,31.95,0,1,1-31.95-31.95A31.95,31.95,0,0,1,312.14,280.21Z"/><path class="cls-4" d="M813.44,168.78l76.92,280.68c.9,5,0,6.3-4.5,6.3H860.22c-3.15,0-4.05-1.35-5-5.85L826,346H684.79L655.1,449.91c-1.35,4.5-2.25,5.85-5.39,5.85H624.07c-4.5,0-5.4-1.35-4.5-6.3l79.61-280.68c12.6-45.44,18.9-51.73,55.78-51.73C795.44,117.05,800.84,123.34,813.44,168.78ZM732,176.87,692.89,315.41H817.94L780.6,176.87c-7.2-26.09-8.55-29.69-25.64-29.69C740.57,147.18,739.22,150.78,732,176.87Z"/><path class="cls-4" d="M972.22,119.3c3.6,0,5.84,1.79,5.84,5.39V425.62h170c3.6,0,5.85,1.8,5.85,5.4v18.89c0,4-2.25,5.85-5.85,5.85H950.18q-6.75,0-6.75-6.75V124.69c0-3.6,2.25-5.39,5.85-5.39Z"/><path class="cls-4" d="M1228.15,119.3c3.6,0,5.85,1.79,5.85,5.39V425.62h170c3.6,0,5.85,1.8,5.85,5.4v18.89c0,4-2.25,5.85-5.85,5.85H1206.11q-6.73,0-6.74-6.75V124.69c0-3.6,2.25-5.39,5.84-5.39Z"/><path class="cls-4" d="M1483.64,119.3c4,0,5.85,1.79,5.85,5.39V449.91c0,4-1.8,5.85-5.85,5.85H1460.7c-3.6,0-5.4-1.8-5.4-5.85V124.69c0-3.6,1.8-5.39,5.4-5.39Z"/><path class="cls-4" d="M1777.82,119.3c3.6,0,5.85,1.79,5.85,5.39v18.9c0,4-2.25,5.84-5.85,5.84H1602.39v129.1h159.24c4,0,5.85,1.8,5.85,5.4v18.89c0,4.05-1.8,5.85-5.85,5.85H1602.39v117h175.43c3.6,0,5.85,1.8,5.85,5.4v18.89c0,4-2.25,5.85-5.85,5.85H1574.51q-6.75,0-6.75-6.75V126q0-6.75,6.75-6.74Z"/><path class="cls-4" d="M2108.88,287.08c0,122.8-34.19,170.93-135.84,170.93-33.29,0-93.57-.9-121.9-2.25-4.5-.45-5.85-1.35-5.85-5.85V125.14c0-4.49,1.35-5.39,5.85-5.84,28.33-1.8,88.61-2.25,121.9-2.25C2074.69,117.05,2108.88,165.18,2108.88,287.08Zm-229-139.9V427.87H1973c76.46,0,101.65-39.59,101.65-140.79,0-99.86-26.54-139.9-107-139.9Z"/><path class="cls-2" d="M2459.3,117.52c4.37,0,6.55,2.19,6.55,7V448.76c0,4.81-2.18,7-6.55,7h-55.5c-4.37,0-6.56-2.19-6.56-7v-132H2252.6v132c0,4.81-2.19,7-6.56,7h-55.5c-4.37,0-6.55-2.19-6.55-7V124.51c0-4.8,2.18-7,6.55-7H2246c4.37,0,6.56,2.19,6.56,7V256.05h144.64V124.51c0-4.8,2.19-7,6.56-7Z"/><path class="cls-2" d="M2753.39,117.52q6.56,0,6.56,6.56v46.75q0,6.55-6.56,6.56H2596.51V260h143.33c4.38,0,7,2.19,7,6.56v44.57c0,4.37-2.62,6.56-7,6.56H2596.51v78.22h156.88q6.56,0,6.56,6.55V449.2q0,6.56-6.56,6.56H2534.46c-4.37,0-6.56-2.19-6.56-7V124.08q0-6.56,6.56-6.56Z"/><path class="cls-2" d="M3009,167.34,3086,448.76c.87,5.25-1.31,7-5.68,7h-55.94c-3.93,0-4.37-1.75-5.68-7l-24.91-90.89H2876.63l-25.35,90.89c-1.31,5.25-1.75,7-6.12,7h-55.5c-4.8,0-6.55-1.75-5.68-7l78.22-281.42c13.11-47.63,21.85-52.44,72.55-52.44C2987.62,114.9,2995.93,119.71,3009,167.34Zm-85.22,17.92-31.9,115.8h86.53L2947,185.26c-3.06-10.49-3.49-12.68-12.23-12.68C2927.32,172.58,2926.44,174.77,2923.82,185.26Z"/><path class="cls-2" d="M3183.84,117.52q6.55,0,6.55,6.56V395.89h143.34q6.55,0,6.55,6.55V449.2q0,6.56-6.55,6.56H3128.34c-4.37,0-6.56-2.19-6.56-7V124.08q0-6.56,6.56-6.56Z"/><path class="cls-2" d="M3628.26,117.52c4.37,0,7,2.19,7,6.56v46.75c0,4.37-2.63,6.56-7,6.56h-91.33V448.76c0,4.81-2.18,7-6.55,7h-55.5c-4.37,0-6.56-2.19-6.56-7V177.39H3377q-6.55,0-6.55-6.56V124.08q0-6.56,6.55-6.56Z"/><path class="cls-2" d="M3948.58,117.52c4.37,0,6.55,2.19,6.55,7V448.76c0,4.81-2.18,7-6.55,7h-55.5c-4.37,0-6.56-2.19-6.56-7v-132H3741.88v132c0,4.81-2.19,7-6.56,7h-55.49c-4.37,0-6.56-2.19-6.56-7V124.51c0-4.8,2.19-7,6.56-7h55.49c4.37,0,6.56,2.19,6.56,7V256.05h144.64V124.51c0-4.8,2.19-7,6.56-7Z"/></g></g></svg>