<svg xmlns="http://www.w3.org/2000/svg" viewBox="0 0 3747.22 343.11"><defs><style>.cls-1{fill:#0065cc;}.cls-2{fill:#00a6ea;}.cls-3{fill:#002aa9;}.cls-4{fill:#164194;}</style></defs><g id="Layer_2" data-name="Layer 2"><g id="Layer_4" data-name="Layer 4"><path class="cls-1" d="M194.61,394.26a28.3,28.3,0,0,1-28.3-28.3V303.39h75.45V366a28.3,28.3,0,0,1-28.29,28.3Z" transform="translate(0 -53.4)"/><path class="cls-2" d="M304.33,228H241.76l-75.45,75.44h138a28.29,28.29,0,0,0,28.29-28.29V256.24A28.29,28.29,0,0,0,304.33,228Z" transform="translate(0 -53.4)"/><path class="cls-1" d="M332.62,199.65A28.29,28.29,0,0,1,304.33,228H241.76V152.5h62.57a28.29,28.29,0,0,1,28.29,28.29Z" transform="translate(0 -53.4)"/><path class="cls-2" d="M166.31,89.93V152.5L241.76,228v-138a28.29,28.29,0,0,0-28.29-28.29H194.61A28.29,28.29,0,0,0,166.31,89.93Z" transform="translate(0 -53.4)"/><path class="cls-1" d="M138,61.63a28.29,28.29,0,0,1,28.29,28.3V152.5H90.87V89.93a28.29,28.29,0,0,1,28.29-28.3Z" transform="translate(0 -53.4)"/><path class="cls-2" d="M28.3,228H90.87l75.44-75.45H28.3A28.3,28.3,0,0,0,0,180.79v18.86A28.3,28.3,0,0,0,28.3,228Z" transform="translate(0 -53.4)"/><path class="cls-1" d="M0,256.24A28.29,28.29,0,0,1,28.29,228H90.86v75.44H28.29A28.3,28.3,0,0,1,0,275.1Z" transform="translate(0 -53.4)"/><path class="cls-2" d="M166.31,366V303.39L90.86,228V366a28.3,28.3,0,0,0,28.3,28.3H138A28.29,28.29,0,0,0,166.31,366Z" transform="translate(0 -53.4)"/><path class="cls-3" d="M246.56,152.5S245.67,205.44,264,228H241.76V152.5Z" transform="translate(0 -53.4)"/><path class="cls-3" d="M241.76,308.19s-52.94-.89-75.45,17.39V303.39h75.45Z" transform="translate(0 -53.4)"/><path class="cls-3" d="M86.06,303.39S87,250.46,68.67,228H90.86v75.44Z" transform="translate(0 -53.4)"/><path class="cls-3" d="M90.86,147.7s52.94.9,75.45-17.39V152.5H90.86Z" transform="translate(0 -53.4)"/><path class="cls-2" d="M166.31,152.5A75.44,75.44,0,0,1,90.87,228V152.5Z" transform="translate(0 -53.4)"/><path class="cls-2" d="M241.76,228a75.45,75.45,0,0,1-75.45-75.45h75.45Z" transform="translate(0 -53.4)"/><path class="cls-2" d="M166.31,303.39A75.45,75.45,0,0,1,241.76,228v75.44Z" transform="translate(0 -53.4)"/><path class="cls-2" d="M90.86,227.94a75.45,75.45,0,0,1,75.45,75.45H90.86Z" transform="translate(0 -53.4)"/><path class="cls-2" d="M185.27,228a19,19,0,1,1-19-19A19,19,0,0,1,185.27,228Z" transform="translate(0 -53.4)"/><path class="cls-4" d="M605.52,107.28,682.44,388c.9,5,0,6.3-4.5,6.3H652.3c-3.14,0-4-1.35-4.94-5.85l-29.24-103.9H476.88l-29.69,103.9c-1.35,4.5-2.25,5.85-5.4,5.85H416.15c-4.5,0-5.39-1.35-4.5-6.3l79.62-280.68c12.6-45.43,18.89-51.73,55.78-51.73C587.53,55.55,592.93,61.85,605.52,107.28Zm-81.41,8.1L485,253.92H610L572.69,115.38c-7.2-26.09-8.55-29.69-25.64-29.69C532.65,85.69,531.3,89.29,524.11,115.38Z" transform="translate(0 -53.4)"/><path class="cls-4" d="M764.3,57.8c3.6,0,5.85,1.8,5.85,5.4V364.12h170c3.6,0,5.85,1.8,5.85,5.4v18.89c0,4-2.25,5.85-5.85,5.85H742.26q-6.75,0-6.74-6.75V63.2c0-3.6,2.24-5.4,5.84-5.4Z" transform="translate(0 -53.4)"/><path class="cls-4" d="M1020.24,57.8c3.6,0,5.85,1.8,5.85,5.4V364.12h170c3.6,0,5.85,1.8,5.85,5.4v18.89c0,4-2.25,5.85-5.85,5.85H998.2q-6.75,0-6.75-6.75V63.2c0-3.6,2.25-5.4,5.85-5.4Z" transform="translate(0 -53.4)"/><path class="cls-4" d="M1275.73,57.8c4,0,5.85,1.8,5.85,5.4V388.41c0,4-1.8,5.85-5.85,5.85h-22.94c-3.6,0-5.4-1.8-5.4-5.85V63.2q0-5.4,5.4-5.4Z" transform="translate(0 -53.4)"/><path class="cls-4" d="M1569.91,57.8c3.6,0,5.85,1.8,5.85,5.4V82.09c0,4-2.25,5.85-5.85,5.85H1394.48V217h159.24c4,0,5.84,1.8,5.84,5.4v18.89c0,4.05-1.8,5.85-5.84,5.85H1394.48v117h175.43c3.6,0,5.85,1.8,5.85,5.4v18.89c0,4-2.25,5.85-5.85,5.85H1366.59q-6.75,0-6.75-6.75v-323q0-6.75,6.75-6.75Z" transform="translate(0 -53.4)"/><path class="cls-4" d="M1901,225.58c0,122.8-34.19,170.93-135.85,170.93-33.28,0-93.56-.9-121.9-2.25-4.5-.45-5.84-1.35-5.84-5.85V63.65c0-4.5,1.34-5.4,5.84-5.85,28.34-1.8,88.62-2.25,121.9-2.25C1866.78,55.55,1901,103.68,1901,225.58ZM1672,85.69V366.37h93.11c76.47,0,101.66-39.58,101.66-140.79,0-99.86-26.54-139.89-107.06-139.89Z" transform="translate(0 -53.4)"/><path class="cls-2" d="M2251.39,56c4.36,0,6.55,2.18,6.55,7V387.27c0,4.81-2.19,7-6.55,7h-55.5c-4.37,0-6.56-2.18-6.56-7v-132H2044.69v132c0,4.81-2.19,7-6.56,7h-55.5c-4.37,0-6.55-2.18-6.55-7V63c0-4.81,2.18-7,6.55-7h55.5c4.37,0,6.56,2.18,6.56,7V194.55h144.64V63c0-4.81,2.19-7,6.56-7Z" transform="translate(0 -53.4)"/><path class="cls-2" d="M2545.48,56q6.55,0,6.56,6.55v46.76q0,6.55-6.56,6.55H2388.6v82.6h143.33c4.37,0,7,2.18,7,6.55v44.58c0,4.37-2.63,6.55-7,6.55H2388.6v78.22h156.88q6.55,0,6.56,6.56v46.76q0,6.56-6.56,6.55H2326.55c-4.37,0-6.56-2.18-6.56-7V62.58q0-6.55,6.56-6.55Z" transform="translate(0 -53.4)"/><path class="cls-2" d="M2801.12,105.84,2878,387.27c.88,5.24-1.31,7-5.68,7h-55.93c-3.94,0-4.37-1.75-5.68-7l-24.91-90.9H2668.71l-25.34,90.9c-1.31,5.24-1.75,7-6.12,7h-55.5c-4.81,0-6.55-1.75-5.68-7l78.22-281.43c13.11-47.63,21.85-52.44,72.54-52.44C2779.71,53.4,2788,58.21,2801.12,105.84Zm-85.21,17.92L2684,239.56h86.52l-31.46-115.8c-3.06-10.49-3.5-12.67-12.24-12.67C2719.4,111.09,2718.53,113.27,2715.91,123.76Z" transform="translate(0 -53.4)"/><path class="cls-2" d="M2975.92,56q6.55,0,6.56,6.55V334.39h143.33q6.55,0,6.56,6.56v46.76q0,6.56-6.56,6.55H2920.43c-4.37,0-6.56-2.18-6.56-7V62.58q0-6.55,6.56-6.55Z" transform="translate(0 -53.4)"/><path class="cls-2" d="M3420.35,56c4.37,0,7,2.18,7,6.55v46.76c0,4.37-2.62,6.55-7,6.55H3329V387.27c0,4.81-2.19,7-6.56,7H3267c-4.37,0-6.56-2.18-6.56-7V115.89h-91.33q-6.55,0-6.56-6.55V62.58q0-6.55,6.56-6.55Z" transform="translate(0 -53.4)"/><path class="cls-2" d="M3740.67,56c4.37,0,6.55,2.18,6.55,7V387.27c0,4.81-2.18,7-6.55,7h-55.5c-4.37,0-6.56-2.18-6.56-7v-132H3534v132c0,4.81-2.19,7-6.56,7h-55.5c-4.37,0-6.55-2.18-6.55-7V63c0-4.81,2.18-7,6.55-7h55.5c4.37,0,6.56,2.18,6.56,7V194.55h144.64V63c0-4.81,2.19-7,6.56-7Z" transform="translate(0 -53.4)"/></g></g></svg>