<svg xmlns="http://www.w3.org/2000/svg" viewBox="0 0 3465.44 1428.99"><defs><style>.cls-1{fill:#0065cc;}.cls-2{fill:#00a6ea;}.cls-3{fill:#002aa9;}.cls-4{fill:#164194;}</style></defs><g id="Layer_2" data-name="Layer 2"><g id="Layer_3" data-name="Layer 3"><path class="cls-1" d="M836.05,1429a121.55,121.55,0,0,1-121.56-121.56V1038.62H1038.6v268.81A121.55,121.55,0,0,1,917.08,1429Z"/><path class="cls-2" d="M1307.42,714.49H1038.6L714.49,1038.62h592.93A121.56,121.56,0,0,0,1429,917.07v-81A121.56,121.56,0,0,0,1307.42,714.49Z"/><path class="cls-1" d="M1429,592.94a121.54,121.54,0,0,1-121.55,121.55h-268.8V390.38h268.8A121.54,121.54,0,0,1,1429,511.92Z"/><path class="cls-2" d="M714.49,121.56V390.38l324.14,324.11V121.56A121.57,121.57,0,0,0,917.07,0h-81A121.55,121.55,0,0,0,714.49,121.56Z"/><path class="cls-1" d="M592.94,0A121.55,121.55,0,0,1,714.49,121.56V390.37H390.38V121.56A121.54,121.54,0,0,1,511.91,0Z"/><path class="cls-2" d="M121.56,714.49H390.38L714.49,390.37H121.56A121.55,121.55,0,0,0,0,511.92v81A121.55,121.55,0,0,0,121.56,714.49Z"/><path class="cls-1" d="M0,836A121.55,121.55,0,0,1,121.55,714.49H390.36v324.12H121.55A121.55,121.55,0,0,1,0,917.07Z"/><path class="cls-2" d="M714.49,1307.43V1038.61L390.36,714.49v592.94A121.55,121.55,0,0,0,511.91,1429h81A121.54,121.54,0,0,0,714.49,1307.43Z"/><path class="cls-3" d="M1059.25,390.38s-3.85,227.43,74.7,324.13h-95.32V390.38Z"/><path class="cls-3" d="M1038.61,1059.24s-227.42-3.85-324.12,74.71v-95.33h324.12Z"/><path class="cls-3" d="M369.72,1038.62s3.85-227.43-74.7-324.13h95.32v324.13Z"/><path class="cls-3" d="M390.36,369.76s227.42,3.85,324.11-74.71v95.33H390.36Z"/><path class="cls-2" d="M714.5,390.37c0,179-145.11,324.12-324.12,324.12V390.37Z"/><path class="cls-2" d="M1038.61,714.49c-179,0-324.12-145.1-324.12-324.12h324.12Z"/><path class="cls-2" d="M714.47,1038.62c0-179,145.11-324.13,324.13-324.13v324.13Z"/><path class="cls-2" d="M390.35,714.47c179,0,324.12,145.11,324.12,324.13H390.35Z"/><path class="cls-2" d="M795.93,714.51a81.46,81.46,0,1,1-81.46-81.46A81.46,81.46,0,0,1,795.93,714.51Z"/><path class="cls-4" d="M1869.28,351.16l76.92,280.68c.9,4.95,0,6.3-4.5,6.3h-25.63c-3.15,0-4-1.35-5-5.85l-29.24-103.9H1740.64L1711,632.29c-1.35,4.5-2.25,5.85-5.4,5.85h-25.64c-4.5,0-5.4-1.35-4.5-6.3L1755,351.16c12.6-45.43,18.89-51.73,55.78-51.73C1851.29,299.43,1856.69,305.73,1869.28,351.16Zm-81.41,8.1L1748.73,497.8h125l-37.33-138.54c-7.2-26.09-8.55-29.69-25.64-29.69C1796.41,329.57,1795.07,333.17,1787.87,359.26Z"/><path class="cls-4" d="M2028.06,301.68c3.6,0,5.85,1.8,5.85,5.4V608h170c3.6,0,5.85,1.8,5.85,5.4v18.89c0,4.05-2.25,5.85-5.85,5.85H2006q-6.75,0-6.74-6.75V307.08c0-3.6,2.24-5.4,5.84-5.4Z"/><path class="cls-4" d="M2284,301.68c3.6,0,5.85,1.8,5.85,5.4V608h170c3.6,0,5.85,1.8,5.85,5.4v18.89c0,4.05-2.25,5.85-5.85,5.85H2262q-6.75,0-6.75-6.75V307.08c0-3.6,2.25-5.4,5.85-5.4Z"/><path class="cls-4" d="M2539.49,301.68c4.05,0,5.85,1.8,5.85,5.4V632.29c0,4.05-1.8,5.85-5.85,5.85h-22.94c-3.6,0-5.4-1.8-5.4-5.85V307.08q0-5.4,5.4-5.4Z"/><path class="cls-4" d="M2833.67,301.68c3.6,0,5.85,1.8,5.85,5.4V326c0,4-2.25,5.85-5.85,5.85H2658.24V460.91h159.24c4,0,5.84,1.8,5.84,5.4V485.2c0,4.05-1.8,5.85-5.84,5.85H2658.24V608h175.43c3.6,0,5.85,1.8,5.85,5.4v18.89c0,4.05-2.25,5.85-5.85,5.85H2630.35q-6.75,0-6.75-6.75v-323q0-6.75,6.75-6.75Z"/><path class="cls-4" d="M3164.73,469.46c0,122.8-34.19,170.93-135.85,170.93-33.28,0-93.56-.9-121.9-2.25-4.5-.45-5.84-1.35-5.84-5.85V307.53c0-4.5,1.34-5.4,5.84-5.85,28.34-1.8,88.62-2.25,121.9-2.25C3130.54,299.43,3164.73,347.56,3164.73,469.46Zm-229-139.89V610.25h93.11c76.47,0,101.66-39.58,101.66-140.79,0-99.86-26.54-139.89-107.06-139.89Z"/><path class="cls-2" d="M1969.6,774.69c4.37,0,6.56,2.18,6.56,7v324.25c0,4.81-2.19,7-6.56,7h-55.49c-4.38,0-6.56-2.18-6.56-7V974H1762.9v132c0,4.81-2.18,7-6.55,7h-55.5c-4.37,0-6.55-2.18-6.55-7V781.68c0-4.81,2.18-7,6.55-7h55.5c4.37,0,6.55,2.18,6.55,7V913.22h144.65V781.68c0-4.81,2.18-7,6.56-7Z"/><path class="cls-2" d="M2263.7,774.69q6.56,0,6.55,6.55V828q0,6.56-6.55,6.56H2106.82v82.59h143.33c4.37,0,7,2.18,7,6.55v44.58c0,4.37-2.63,6.55-7,6.55H2106.82v78.23H2263.7q6.56,0,6.55,6.55v46.76q0,6.56-6.55,6.55H2044.76c-4.36,0-6.55-2.18-6.55-7V781.24q0-6.56,6.55-6.55Z"/><path class="cls-2" d="M2519.34,824.51l76.91,281.42c.88,5.25-1.31,7-5.68,7h-55.93c-3.94,0-4.37-1.74-5.68-7L2504.05,1015H2386.93l-25.34,90.89c-1.31,5.25-1.75,7-6.12,7H2300c-4.81,0-6.56-1.74-5.68-7l78.22-281.42c13.11-47.64,21.85-52.44,72.54-52.44C2497.93,772.07,2506.23,776.87,2519.34,824.51Zm-85.21,17.91-31.9,115.81h86.52l-31.46-115.81c-3.06-10.48-3.5-12.67-12.24-12.67C2437.62,829.75,2436.75,831.94,2434.13,842.42Z"/><path class="cls-2" d="M2694.14,774.69q6.56,0,6.56,6.55v271.82H2844q6.55,0,6.56,6.55v46.76q0,6.56-6.56,6.55H2638.65c-4.37,0-6.56-2.18-6.56-7V781.24q0-6.56,6.56-6.55Z"/><path class="cls-2" d="M3138.57,774.69c4.37,0,7,2.18,7,6.55V828c0,4.37-2.62,6.56-7,6.56h-91.33v271.37c0,4.81-2.19,7-6.56,7h-55.49c-4.37,0-6.56-2.18-6.56-7V834.56H2887.3q-6.56,0-6.56-6.56V781.24q0-6.56,6.56-6.55Z"/><path class="cls-2" d="M3458.89,774.69c4.36,0,6.55,2.18,6.55,7v324.25c0,4.81-2.19,7-6.55,7h-55.5c-4.37,0-6.56-2.18-6.56-7V974H3252.19v132c0,4.81-2.19,7-6.56,7h-55.5c-4.37,0-6.55-2.18-6.55-7V781.68c0-4.81,2.18-7,6.55-7h55.5c4.37,0,6.56,2.18,6.56,7V913.22h144.64V781.68c0-4.81,2.19-7,6.56-7Z"/></g></g></svg>